<?xml version="1.0" standalone="no"?>
<!DOCTYPE svg PUBLIC "-//W3C//DTD SVG 1.0//EN"
"http://www.w3.org/TR/2001/REC-SVG-20010904/DTD/svg10.dtd">

<svg width="500" height="500" viewBox="0 0 500 500">

  <defs>
    <symbol id="raw" viewbox="0 0 350 50">
      <rect x="0" y="0" width="50" height="50" transform="translate(  0,  0)" style="fill:black"/>
      <rect x="0" y="0" width="50" height="50" transform="translate(100,  0)" style="fill:black"/>
      <rect x="0" y="0" width="50" height="50" transform="translate(200,  0)" style="fill:black"/>
      <rect x="0" y="0" width="50" height="50" transform="translate(300,  0)" style="fill:black"/>
    </symbol>

    <symbol id="whiteQueen" viewbox="0 0 50 50">
      <g>
        <path d="M 15 40 L 10 20 L 20 30 L 25 20 L 30 30 L 40 20 L 35 40 z" fill="red" />
      </g>
    </symbol>

    <symbol id="blackQueen" viewbox="0 0 50 50">
      <g>
        <path d="M 15 40 L 10 20 L 20 30 L 25 20 L 30 30 L 40 20 L 35 40 z" fill="blue" />
      </g>
    </symbol>

    <symbol id="whiteKing" viewbox="0 0 50 50">
      <g>
        <path d="M 20 40 L 10 10 L 20 20 L 25 10 L 30 20 L 40 10 L 30 40 z" fill="red" />
      </g>
    </symbol>

    <symbol id="blackKing" viewbox="0 0 50 50">
      <g>
        <path d="M 20 40 L 10 10 L 20 20 L 25 10 L 30 20 L 40 10 L 30 40 z" fill="blue" />
      </g>
    </symbol>

    <symbol id="whiteHorse" viewbox="0 0 50 50">
      <g>
        <path d="M 10 40 L 10 35 L 20 35 L 20 25 L 10 25 L 10 20 L 20 15 L 20 10 L 30 20 L 30 35 L 40 35 L 40 40 L 10 40 z" fill="red" />
      </g>
    </symbol>

    <symbol id="blackHorse" viewbox="0 0 50 50">
      <g>
        <path d="M 10 40 L 10 35 L 20 35 L 20 25 L 10 25 L 10 20 L 20 15 L 20 10 L 30 20 L 30 35 L 40 35 L 40 40 L 10 40 z" fill="blue" />
      </g>
    </symbol>

    <symbol id="whiteRunner" viewbox="0 0 50 50">
      <g>
        <rect x="11" y="38" width="28" height="10" style="fill:red"/>
        <rect x="18" y="18" width="14" height="22" style="fill:red"/>
        <circle cx="25" cy="18" r="9" style="fill:red"/>
      </g>
    </symbol>

    <symbol id="blackRunner" viewbox="0 0 50 50">
      <g>
        <rect x="11" y="38" width="28" height="10" style="fill:blue"/>
        <rect x="18" y="18" width="14" height="22" style="fill:blue"/>
        <circle cx="25" cy="18" r="9" style="fill:blue"/>
      </g>
    </symbol>

    <symbol id="whitePiece" viewbox="0 0 50 50">
      <g>
        <rect x="10" y="35" width="30" height="10" style="fill:red"/>
        <rect x="20" y="20" width="10" height="20" style="fill:red"/>
        <circle cx="25" cy="20" r="7" style="fill:red"/>
      </g>
    </symbol>

    <symbol id="blackPiece" viewbox="0 0 50 50">
      <g>
        <rect x="10" y="35" width="30" height="10" style="fill:blue"/>
        <rect x="20" y="20" width="10" height="20" style="fill:blue"/>
        <circle cx="25" cy="20" r="7" style="fill:blue"/>
      </g>
    </symbol>

    <symbol id="whiteTower" viewbox="0 0 50 50">
      <g>
        <rect x="10" y="30" width="30" height="10" style="fill:red"/>
        <rect x="20" y="20" width="10" height="10" style="fill:red"/>
        <rect x="10" y="15" width="30" height="5" style="fill:red"/>
        <rect x="10" y="10" width="6" height="10" style="fill:red"/>
        <rect x="22" y="10" width="6" height="10" style="fill:red"/>
        <rect x="34" y="10" width="6" height="10" style="fill:red"/>
      </g>
    </symbol>

    <symbol id="blackTower" viewbox="0 0 50 50">
      <g>
        <rect x="10" y="30" width="30" height="10" style="fill:blue"/>
        <rect x="20" y="20" width="10" height="10" style="fill:blue"/>
        <rect x="10" y="15" width="30" height="5" style="fill:blue"/>
        <rect x="10" y="10" width="6" height="10" style="fill:blue"/>
        <rect x="22" y="10" width="6" height="10" style="fill:blue"/>
        <rect x="34" y="10" width="6" height="10" style="fill:blue"/>
      </g>
    </symbol>

</defs>

<g transform="translate(50,50)">
  <g>
    <use x="0" y="0" width="350" height="50" xlink:href="#raw"/>
    <use x="50" y="50" width="350" height="50" xlink:href="#raw"/>
    <use x="0" y="100" width="350" height="50" xlink:href="#raw"/>
    <use x="50" y="150" width="350" height="50" xlink:href="#raw"/>
    <use x="0" y="200" width="350" height="50" xlink:href="#raw"/>
    <use x="50" y="250" width="350" height="50" xlink:href="#raw"/>
    <use x="0" y="300" width="350" height="50" xlink:href="#raw"/>
    <use x="50" y="350" width="350" height="50" xlink:href="#raw"/>
  </g>

  <g id="xmlBlaster.whitePiece1" transform="translate(0,50)">
    <use x="0" y="0" width="50" height="50" xlink:href="#whitePiece"/>
    <rect x="0" y="0" width="50" height="50" style="fill:green" opacity="0.10"/>
  </g>

  <g id="xmlBlaster.whitePiece2" transform="translate(50,50)">
    <use x="0" y="0" width="50" height="50" xlink:href="#whitePiece"/>
    <rect x="0" y="0" width="50" height="50" style="fill:green" opacity="0.10"/>
  </g>

  <g id="xmlBlaster.whitePiece3" transform="translate(100,50)">
    <use x="0" y="0" width="50" height="50" xlink:href="#whitePiece"/>
    <rect x="0" y="0" width="50" height="50" style="fill:green" opacity="0.10"/>
  </g>
  <g id="xmlBlaster.whitePiece4" transform="translate(150,50)">
    <use x="0" y="0" width="50" height="50" xlink:href="#whitePiece"/>
    <rect x="0" y="0" width="50" height="50" style="fill:green" opacity="0.10"/>
  </g>
  <g id="xmlBlaster.whitePiece5" transform="translate(200,50)">
    <use x="0" y="0" width="50" height="50" xlink:href="#whitePiece"/>
    <rect x="0" y="0" width="50" height="50" style="fill:green" opacity="0.10"/>
  </g>
  <g id="xmlBlaster.whitePiece6" transform="translate(250,50)">
    <use x="0" y="0" width="50" height="50" xlink:href="#whitePiece"/>
    <rect x="0" y="0" width="50" height="50" style="fill:green" opacity="0.10"/>
  </g>
  <g id="xmlBlaster.whitePiece7" transform="translate(300,50)">
    <use x="0" y="0" width="50" height="50" xlink:href="#whitePiece"/>
    <rect x="0" y="0" width="50" height="50" style="fill:green" opacity="0.10"/>
  </g>
  <g id="xmlBlaster.whitePiece8" transform="translate(350,50)">
    <use x="0" y="0" width="50" height="50" xlink:href="#whitePiece"/>
    <rect x="0" y="0" width="50" height="50" style="fill:green" opacity="0.10"/>
  </g>

  <g id="xmlBlaster.blackPiece1" transform="translate(0,300)">
    <use x="0" y="0" width="50" height="50" xlink:href="#blackPiece"/>
    <rect x="0" y="0" width="50" height="50" style="fill:green" opacity="0.10"/>
  </g>

  <g id="xmlBlaster.blackPiece2" transform="translate(50,300)">
    <use x="0" y="0" width="50" height="50" xlink:href="#blackPiece"/>
    <rect x="0" y="0" width="50" height="50" style="fill:green" opacity="0.10"/>
  </g>

  <g id="xmlBlaster.blackPiece3" transform="translate(100,300)">
    <use x="0" y="0" width="50" height="50" xlink:href="#blackPiece"/>
    <rect x="0" y="0" width="50" height="50" style="fill:green" opacity="0.10"/>
  </g>
  <g id="xmlBlaster.blackPiece4" transform="translate(150,300)">
    <use x="0" y="0" width="50" height="50" xlink:href="#blackPiece"/>
    <rect x="0" y="0" width="50" height="50" style="fill:green" opacity="0.10"/>
  </g>
  <g id="xmlBlaster.blackPiece5" transform="translate(200,300)">
    <use x="0" y="0" width="50" height="50" xlink:href="#blackPiece"/>
    <rect x="0" y="0" width="50" height="50" style="fill:green" opacity="0.10"/>
  </g>
  <g id="xmlBlaster.blackPiece6" transform="translate(250,300)">
    <use x="0" y="0" width="50" height="50" xlink:href="#blackPiece"/>
    <rect x="0" y="0" width="50" height="50" style="fill:green" opacity="0.10"/>
  </g>
  <g id="xmlBlaster.blackPiece7" transform="translate(300,300)">
    <use x="0" y="0" width="50" height="50" xlink:href="#blackPiece"/>
    <rect x="0" y="0" width="50" height="50" style="fill:green" opacity="0.10"/>
  </g>
  <g id="xmlBlaster.blackPiece8" transform="translate(350,300)">
    <use x="0" y="0" width="50" height="50" xlink:href="#blackPiece"/>
    <rect x="0" y="0" width="50" height="50" style="fill:green" opacity="0.10"/>
  </g>


  <g id="xmlBlaster.blackTower1" transform="translate(0,350)">
    <use x="0" y="0" width="50" height="50" xlink:href="#blackTower"/>
    <rect x="0" y="0" width="50" height="50" style="fill:green" opacity="0.10"/>
  </g>

  <g id="xmlBlaster.blackTower2" transform="translate(350,350)">
    <use x="0" y="0" width="50" height="50" xlink:href="#blackTower"/>
    <rect x="0" y="0" width="50" height="50" style="fill:green" opacity="0.10"/>
  </g>

  <g id="xmlBlaster.whiteTower1" transform="translate(0,0)">
    <use x="0" y="0" width="50" height="50" xlink:href="#whiteTower"/>
    <rect x="0" y="0" width="50" height="50" style="fill:green" opacity="0.10"/>
  </g>

  <g id="xmlBlaster.whiteTower2" transform="translate(350,0)">
    <use x="0" y="0" width="50" height="50" xlink:href="#whiteTower"/>
    <rect x="0" y="0" width="50" height="50" style="fill:green" opacity="0.10"/>
  </g>

  <g id="xmlBlaster.whiteRunner1" transform="translate(100,0)">
    <use x="0" y="0" width="50" height="50" xlink:href="#whiteRunner"/>
    <rect x="0" y="0" width="50" height="50" style="fill:green" opacity="0.10"/>
  </g>
  <g id="xmlBlaster.whiteRunner2" transform="translate(250,0)">
    <use x="0" y="0" width="50" height="50" xlink:href="#whiteRunner"/>
    <rect x="0" y="0" width="50" height="50" style="fill:green" opacity="0.10"/>
  </g>

  <g id="xmlBlaster.blackRunner1" transform="translate(100,350)">
    <use x="0" y="0" width="50" height="50" xlink:href="#blackRunner"/>
    <rect x="0" y="0" width="50" height="50" style="fill:green" opacity="0.10"/>
  </g>
  <g id="xmlBlaster.blackRunner2" transform="translate(250,350)">
    <use x="0" y="0" width="50" height="50" xlink:href="#blackRunner"/>
    <rect x="0" y="0" width="50" height="50" style="fill:green" opacity="0.10"/>
  </g>

  <g id="xmlBlaster.whiteHorse1" transform="translate(50,0)">
    <use x="0" y="0" width="50" height="50" xlink:href="#whiteHorse"/>
    <rect x="0" y="0" width="50" height="50" style="fill:green" opacity="0.10"/>
  </g>
  <g id="xmlBlaster.whiteHorse2" transform="translate(300,0)">
    <use x="0" y="0" width="50" height="50" xlink:href="#whiteHorse"/>
    <rect x="0" y="0" width="50" height="50" style="fill:green" opacity="0.10"/>
  </g>

  <g id="xmlBlaster.blackHorse1" transform="translate(50,350)">
    <use x="0" y="0" width="50" height="50" xlink:href="#blackHorse"/>
    <rect x="0" y="0" width="50" height="50" style="fill:green" opacity="0.10"/>
  </g>
  <g id="xmlBlaster.blackHorse2" transform="translate(300,350)">
    <use x="0" y="0" width="50" height="50" xlink:href="#blackHorse"/>
    <rect x="0" y="0" width="50" height="50" style="fill:green" opacity="0.10"/>
  </g>

  <g id="xmlBlaster.whiteKing" transform="translate(150,0)">
    <use x="0" y="0" width="50" height="50" xlink:href="#whiteKing"/>
    <rect x="0" y="0" width="50" height="50" style="fill:green" opacity="0.10"/>
  </g>

  <g id="xmlBlaster.blackKing" transform="translate(150,350)">
    <use x="0" y="0" width="50" height="50" xlink:href="#blackKing"/>
    <rect x="0" y="0" width="50" height="50" style="fill:green" opacity="0.10"/>
  </g>

  <g id="xmlBlaster.whiteQueen" transform="translate(200,0)">
    <use x="0" y="0" width="50" height="50" xlink:href="#whiteQueen"/>
    <rect x="0" y="0" width="50" height="50" style="fill:green" opacity="0.10"/>
  </g>

  <g id="xmlBlaster.blackQueen" transform="translate(200,350)">
    <use x="0" y="0" width="50" height="50" xlink:href="#blackQueen"/>
    <rect x="0" y="0" width="50" height="50" style="fill:green" opacity="0.10"/>
  </g>

</g>

</svg>
